# xmcd
# Track frame offsets:
# 150
# 17532
# 40139
# 55779
# 73940
# 89778
# 114146
# 128498
# 144162
# 167781
# 183233
# 197042
# 216365
#
# Disc length: 3071 seconds
# Revision: 0
# Processed by: cddbd v1.5.2PL0 Copyright (c) Steve Scherf et al.
# Submitted via: VisiTrax 2.11.1.266 - For more info visit www.synapsa.com
#
DISCID=b20bfd0d
DTITLE=Bill Snow - No Rymin, No Reason
DYEAR=2009
DGENRE=Cowboy
TTITLE0=Stampede
TTITLE1=Stuff That Works
TTITLE2=Cattle Call
TTITLE3=Golden River
TTITLE4=Cry For Me Darlin'
TTITLE5=Old Silver
TTITLE6=Colorado Trail
TTITLE7=Iron Horse
TTITLE8=Sleep, Baby Sleep
TTITLE9=Paint The Brown Grass Green
TTITLE10=Timber Wolf
TTITLE11=Oklahoma Moon
TTITLE12=Colorado Sky
EXTD=
EXTT0=
EXTT1=
EXTT2=
EXTT3=
EXTT4=
EXTT5=
EXTT6=
EXTT7=
EXTT8=
EXTT9=
EXTT10=
EXTT11=
EXTT12=
PLAYORDER=
